<?xml version="1.0" encoding="UTF-8" standalone="no"?>
<!-- Created with Inkscape (http://www.inkscape.org/) -->

<svg
   xmlns:dc="http://purl.org/dc/elements/1.1/"
   xmlns:cc="http://creativecommons.org/ns#"
   xmlns:rdf="http://www.w3.org/1999/02/22-rdf-syntax-ns#"
   xmlns:svg="http://www.w3.org/2000/svg"
   xmlns="http://www.w3.org/2000/svg"
   xmlns:sodipodi="http://sodipodi.sourceforge.net/DTD/sodipodi-0.dtd"
   xmlns:inkscape="http://www.inkscape.org/namespaces/inkscape"
   width="210mm"
   height="297mm"
   id="svg2"
   version="1.1"
   inkscape:version="0.48.4 r"
   inkscape:export-filename="Z:\Work\Strategy\Bitmap\EditIcon.png"
   inkscape:export-xdpi="358.1637"
   inkscape:export-ydpi="358.1637"
   sodipodi:docname="新規ドキュメント 1">
  <defs
     id="defs4" />
  <sodipodi:namedview
     id="base"
     pagecolor="#ffffff"
     bordercolor="#666666"
     borderopacity="1.0"
     inkscape:pageopacity="0.0"
     inkscape:pageshadow="2"
     inkscape:zoom="1.979899"
     inkscape:cx="384.93332"
     inkscape:cy="576.07452"
     inkscape:document-units="px"
     inkscape:current-layer="layer1"
     showgrid="false"
     inkscape:window-width="1920"
     inkscape:window-height="1018"
     inkscape:window-x="-8"
     inkscape:window-y="-8"
     inkscape:window-maximized="1" />
  <metadata
     id="metadata7">
    <rdf:RDF>
      <cc:Work
         rdf:about="">
        <dc:format>image/svg+xml</dc:format>
        <dc:type
           rdf:resource="http://purl.org/dc/dcmitype/StillImage" />
        <dc:title></dc:title>
      </cc:Work>
    </rdf:RDF>
  </metadata>
  <g
     inkscape:label="レイヤー 1"
     inkscape:groupmode="layer"
     id="layer1">
    <path
       inkscape:transform-center-y="-12.858656"
       transform="translate(233.57141,109.28572)"
       d="m 190,257.70464 128.06694,93.04608 -48.91722,150.55171 -158.29944,-1e-5 -48.917216,-150.55171 z"
       inkscape:randomized="0"
       inkscape:rounded="0"
       inkscape:flatsided="true"
       sodipodi:arg2="-0.9424778"
       sodipodi:arg1="-1.5707963"
       sodipodi:r2="108.94024"
       sodipodi:r1="134.65755"
       sodipodi:cy="392.36218"
       sodipodi:cx="190"
       sodipodi:sides="5"
       id="path3826"
       style="fill:#7f0f00;fill-opacity:1;stroke:#000000;stroke-width:1;stroke-linecap:square;stroke-linejoin:miter;stroke-miterlimit:4;stroke-opacity:1;stroke-dasharray:none;stroke-dashoffset:0"
       sodipodi:type="star" />
    <g
       transform="matrix(2.6334174,0,0,2.6334174,-370.04799,-410.36653)"
       style="fill:#00ff00;fill-opacity:1"
       inkscape:label="レイヤー 1"
       id="layer1-8">
      <path
         style="fill:#00ff00;fill-opacity:1;stroke:none"
         d="m 301.9977,316.36333 25,60 -25,-20 -25,20 z"
         id="path2991"
         inkscape:connector-curvature="0"
         inkscape:export-filename="Z:\Work\Strategy\Bitmap\zako.png"
         inkscape:export-xdpi="1799.1371"
         inkscape:export-ydpi="1799.1371" />
    </g>
    <path
       style="fill:#ff7f00;fill-opacity:1;stroke:#000000;stroke-width:0.65449721000000005px;stroke-linecap:butt;stroke-linejoin:miter;stroke-opacity:1"
       d="m 409.8097,453.08827 -50.57736,0 0,97.18788 37.68507,0 0,15.53685 21.48714,-21.48711 -21.65242,-21.65241 0,18.01613 -26.94153,0 0,-79.00647 40.32967,0 z"
       id="path3822"
       inkscape:connector-curvature="0" />
    <path
       inkscape:connector-curvature="0"
       id="path3824"
       d="m 443.33709,551.18217 50.57737,0 0,-97.18787 -37.68507,0 0,-15.53684 -21.48713,21.4871 21.6524,21.6524 0,-18.01613 26.94155,0 0,79.00648 -40.32969,0 z"
       style="fill:#007fff;fill-opacity:1;stroke:#000000;stroke-width:0.65449721000000005px;stroke-linecap:butt;stroke-linejoin:miter;stroke-opacity:1" />
    <path
       sodipodi:type="star"
       style="fill:#7f7f7f;fill-opacity:1;stroke:#000000;stroke-opacity:1"
       id="path3839"
       sodipodi:sides="7"
       sodipodi:cx="157.5838"
       sodipodi:cy="384.14627"
       sodipodi:r1="94.450615"
       sodipodi:r2="85.097061"
       sodipodi:arg1="0.38944358"
       sodipodi:arg2="0.83824253"
       inkscape:flatsided="true"
       inkscape:rounded="0"
       inkscape:randomized="0"
       d="M 244.962,420.00669 184.02641,474.8199 103.179,461.35402 63.299515,389.74913 l 31.118503,-75.82396 78.683622,-22.94604 66.99838,47.21072 z"
       inkscape:transform-center-x="0.15607475"
       inkscape:transform-center-y="-0.17455776"
       transform="matrix(0.04697273,0.05224136,-0.05224136,0.04697273,436.36495,351.11333)" />
    <path
       sodipodi:type="arc"
       style="fill:#7f7f7f;fill-opacity:1;stroke:#000000;stroke-opacity:1"
       id="path3841"
       sodipodi:cx="131.06729"
       sodipodi:cy="298.53586"
       sodipodi:rx="48.739861"
       sodipodi:ry="48.739861"
       d="m 179.80715,298.53586 a 48.739861,48.739861 0 1 1 -97.479719,0 48.739861,48.739861 0 1 1 97.479719,0 z"
       transform="matrix(0.04697273,0.05224136,-0.05224136,0.04697273,433.16316,356.52127)" />
    <path
       transform="matrix(-0.01172281,0.06926884,-0.06926884,-0.01172281,570.36975,457.76345)"
       inkscape:transform-center-y="-0.17105443"
       inkscape:transform-center-x="0.15958913"
       d="M 244.962,420.00669 184.02641,474.8199 103.179,461.35402 63.299515,389.74913 l 31.118503,-75.82396 78.683622,-22.94604 66.99838,47.21072 z"
       inkscape:randomized="0"
       inkscape:rounded="0"
       inkscape:flatsided="true"
       sodipodi:arg2="0.83824253"
       sodipodi:arg1="0.38944358"
       sodipodi:r2="85.097061"
       sodipodi:r1="94.450615"
       sodipodi:cy="384.14627"
       sodipodi:cx="157.5838"
       sodipodi:sides="7"
       id="path3843"
       style="fill:#7f7f7f;fill-opacity:1;stroke:#000000;stroke-opacity:1"
       sodipodi:type="star" />
    <path
       transform="matrix(-0.01172281,0.06926884,-0.06926884,-0.01172281,564.14331,458.61708)"
       d="m 179.80715,298.53586 a 48.739861,48.739861 0 1 1 -97.479719,0 48.739861,48.739861 0 1 1 97.479719,0 z"
       sodipodi:ry="48.739861"
       sodipodi:rx="48.739861"
       sodipodi:cy="298.53586"
       sodipodi:cx="131.06729"
       id="path3845"
       style="fill:#7f7f7f;fill-opacity:1;stroke:#000000;stroke-opacity:1"
       sodipodi:type="arc" />
    <path
       sodipodi:type="star"
       style="fill:#7f7f7f;fill-opacity:1;stroke:#000000;stroke-opacity:1"
       id="path3847"
       sodipodi:sides="7"
       sodipodi:cx="157.5838"
       sodipodi:cy="384.14627"
       sodipodi:r1="94.450615"
       sodipodi:r2="85.097061"
       sodipodi:arg1="0.38944358"
       sodipodi:arg2="0.83824253"
       inkscape:flatsided="true"
       inkscape:rounded="0"
       inkscape:randomized="0"
       d="M 244.962,420.00669 184.02641,474.8199 103.179,461.35402 63.299515,389.74913 l 31.118503,-75.82396 78.683622,-22.94604 66.99838,47.21072 z"
       inkscape:transform-center-x="-0.10488543"
       inkscape:transform-center-y="-0.22548296"
       transform="matrix(8.2446534e-4,0.07024896,-0.07024896,8.2446534e-4,524.48331,592.43187)" />
    <path
       sodipodi:type="arc"
       style="fill:#7f7f7f;fill-opacity:1;stroke:#000000;stroke-opacity:1"
       id="path3849"
       sodipodi:cx="131.06729"
       sodipodi:cy="298.53586"
       sodipodi:rx="48.739861"
       sodipodi:ry="48.739861"
       d="m 179.80715,298.53586 a 48.739861,48.739861 0 1 1 -97.479719,0 48.739861,48.739861 0 1 1 97.479719,0 z"
       transform="matrix(8.2446534e-4,0.07024896,-0.07024896,8.2446534e-4,518.50908,594.38275)" />
    <path
       transform="matrix(0.03038677,-0.06334225,0.06334225,0.03038677,321.72049,602.12744)"
       inkscape:transform-center-y="-0.24039346"
       inkscape:transform-center-x="-0.089805682"
       d="M 244.962,420.00669 184.02641,474.8199 103.179,461.35402 63.299515,389.74913 l 31.118503,-75.82396 78.683622,-22.94604 66.99838,47.21072 z"
       inkscape:randomized="0"
       inkscape:rounded="0"
       inkscape:flatsided="true"
       sodipodi:arg2="0.83824253"
       sodipodi:arg1="0.38944358"
       sodipodi:r2="85.097061"
       sodipodi:r1="94.450615"
       sodipodi:cy="384.14627"
       sodipodi:cx="157.5838"
       sodipodi:sides="7"
       id="path3851"
       style="fill:#7f7f7f;fill-opacity:1;stroke:#000000;stroke-opacity:1"
       sodipodi:type="star" />
    <path
       transform="matrix(0.03038677,-0.06334225,0.06334225,0.03038677,327.94067,603.02557)"
       d="m 179.80715,298.53586 a 48.739861,48.739861 0 1 1 -97.479719,0 48.739861,48.739861 0 1 1 97.479719,0 z"
       sodipodi:ry="48.739861"
       sodipodi:rx="48.739861"
       sodipodi:cy="298.53586"
       sodipodi:cx="131.06729"
       id="path3853"
       style="fill:#7f7f7f;fill-opacity:1;stroke:#000000;stroke-opacity:1"
       sodipodi:type="arc" />
    <path
       sodipodi:type="star"
       style="fill:#7f7f7f;fill-opacity:1;stroke:#000000;stroke-opacity:1"
       id="path3855"
       sodipodi:sides="7"
       sodipodi:cx="157.5838"
       sodipodi:cy="384.14627"
       sodipodi:r1="94.450615"
       sodipodi:r2="85.097061"
       sodipodi:arg1="0.38944358"
       sodipodi:arg2="0.83824253"
       inkscape:flatsided="true"
       inkscape:rounded="0"
       inkscape:randomized="0"
       d="M 244.962,420.00669 184.02641,474.8199 103.179,461.35402 63.299515,389.74913 l 31.118503,-75.82396 78.683622,-22.94604 66.99838,47.21072 z"
       inkscape:transform-center-x="-0.061140476"
       inkscape:transform-center-y="-0.26867001"
       transform="matrix(-0.05570327,0.04281054,-0.04281054,-0.05570327,330.35079,477.75635)" />
    <path
       sodipodi:type="arc"
       style="fill:#7f7f7f;fill-opacity:1;stroke:#000000;stroke-opacity:1"
       id="path3857"
       sodipodi:cx="131.06729"
       sodipodi:cy="298.53586"
       sodipodi:rx="48.739861"
       sodipodi:ry="48.739861"
       d="m 179.80715,298.53586 a 48.739861,48.739861 0 1 1 -97.479719,0 48.739861,48.739861 0 1 1 97.479719,0 z"
       transform="matrix(-0.05570327,0.04281054,-0.04281054,-0.05570327,325.20545,474.14764)" />
  </g>
</svg>
