<?xml version="1.0" encoding="UTF-8" standalone="no"?>
<!-- Created with Inkscape (http://www.inkscape.org/) -->

<svg
   xmlns:dc="http://purl.org/dc/elements/1.1/"
   xmlns:cc="http://creativecommons.org/ns#"
   xmlns:rdf="http://www.w3.org/1999/02/22-rdf-syntax-ns#"
   xmlns:svg="http://www.w3.org/2000/svg"
   xmlns="http://www.w3.org/2000/svg"
   xmlns:sodipodi="http://sodipodi.sourceforge.net/DTD/sodipodi-0.dtd"
   xmlns:inkscape="http://www.inkscape.org/namespaces/inkscape"
   width="210mm"
   height="297mm"
   id="svg2"
   version="1.1"
   inkscape:version="0.48.4 r"
   sodipodi:docname="HP_Base.svg"
   inkscape:export-filename="Z:\Work\Strategy\Bitmap\HP_Base_Red.png"
   inkscape:export-xdpi="1441.3474"
   inkscape:export-ydpi="1441.3474">
  <defs
     id="defs4" />
  <sodipodi:namedview
     id="base"
     pagecolor="#ffffff"
     bordercolor="#666666"
     borderopacity="1.0"
     inkscape:pageopacity="0.0"
     inkscape:pageshadow="2"
     inkscape:zoom="2"
     inkscape:cx="464.67903"
     inkscape:cy="751.344"
     inkscape:document-units="px"
     inkscape:current-layer="layer1"
     showgrid="false"
     inkscape:window-width="1920"
     inkscape:window-height="1018"
     inkscape:window-x="-8"
     inkscape:window-y="-8"
     inkscape:window-maximized="1" />
  <metadata
     id="metadata7">
    <rdf:RDF>
      <cc:Work
         rdf:about="">
        <dc:format>image/svg+xml</dc:format>
        <dc:type
           rdf:resource="http://purl.org/dc/dcmitype/StillImage" />
        <dc:title></dc:title>
      </cc:Work>
    </rdf:RDF>
  </metadata>
  <g
     inkscape:label="レイヤー 1"
     inkscape:groupmode="layer"
     id="layer1">
    <path
       sodipodi:type="arc"
       style="opacity:0.80000000000000004;fill:none;stroke:#00ff00;stroke-width:0.79343629000000004;stroke-miterlimit:4;stroke-opacity:1;stroke-dasharray:none"
       id="path4014"
       sodipodi:cx="269.46429"
       sodipodi:cy="425.39789"
       sodipodi:rx="73.39286"
       sodipodi:ry="73.39286"
       d="m 342.85715,425.39789 a 73.39286,73.39286 0 1 1 -146.78572,0 73.39286,73.39286 0 1 1 146.78572,0 z"
       transform="matrix(1.2705046,0,0,1.2705046,-42.355627,-88.10779)" />
    <path
       style="opacity:0.80000000000000004;fill:#00ff00;fill-opacity:1;stroke:none"
       d="m 300,352.36218 c -55.22848,0 -100,44.77152 -100,100 0,55.22848 44.77152,100 100,100 55.22848,0 100,-44.77152 100,-100 0,-55.22848 -44.77152,-100 -100,-100 z m 0,1 c 54.6762,0 99,44.3238 99,99 0,54.6762 -44.3238,99 -99,99 -54.6762,0 -99,-44.3238 -99,-99 0,-54.6762 44.3238,-99 99,-99 z m 0,3 c -53.01934,0 -96,42.98066 -96,96 0,53.01934 42.98066,96 96,96 53.01934,0 96,-42.98066 96,-96 0,-53.01934 -42.98066,-96 -96,-96 z m 0,1 c 52.46706,0 95,42.53294 95,95 0,52.46706 -42.53294,95 -95,95 -52.46706,0 -95,-42.53294 -95,-95 0,-52.46706 42.53294,-95 95,-95 z"
       id="path2987"
       inkscape:export-filename="Z:\Work\Strategy\Bitmap\HP_Base_Green.png"
       inkscape:export-xdpi="1441.3474"
       inkscape:export-ydpi="1441.3474"
       inkscape:connector-curvature="0" />
    <path
       style="opacity:0.90000000000000002;fill:#ff2400;fill-opacity:1;stroke:none"
       d="m 462,170.625 c -52.46705,0 -95,42.53295 -95,95 0,52.46705 42.53295,95 95,95 52.46705,0 95,-42.53295 95,-95 0,-52.46705 -42.53295,-95 -95,-95 z m 0,1.25 c 51.77669,0 93.75,41.97331 93.75,93.75 0,51.77669 -41.97331,93.75 -93.75,93.75 -51.77669,0 -93.75,-41.97331 -93.75,-93.75 0,-51.77669 41.97331,-93.75 93.75,-93.75 z"
       id="path3005"
       inkscape:connector-curvature="0"
       inkscape:export-filename="Z:\Work\Strategy\Bitmap\Bull_Base_Green.png"
       inkscape:export-xdpi="1515.7894"
       inkscape:export-ydpi="1515.7894" />
    <path
       style="opacity:0.80000000000000004;fill:#00ff00;fill-opacity:1;stroke:none"
       d="M 325.875 355.75 L 324.25 361.78125 C 324.57503 361.86805 324.89512 361.94106 325.21875 362.03125 L 326.84375 356 C 326.52192 355.91054 326.19813 355.83632 325.875 355.75 z M 275.6875 542.9375 L 274.125 548.8125 L 275.09375 549.09375 L 276.6875 543.1875 C 276.35168 543.10159 276.02185 543.02702 275.6875 542.9375 z "
       id="path4078" />
    <path
       style="opacity:0.80000000000000004;fill:#ffffff;fill-opacity:1;stroke:none"
       d="M 300 352.375 L 300 358.625 C 300.33616 358.625 300.66468 358.62147 301 358.625 L 301 352.375 C 300.66811 352.37176 300.33265 352.375 300 352.375 z M 300 546.125 L 300 552.375 C 300.33265 552.375 300.66811 552.37824 301 552.375 L 301 546.125 C 300.66468 546.12853 300.33616 546.125 300 546.125 z "
       id="path4055" />
    <path
       style="opacity:0.80000000000000004;fill:#00ff00;fill-opacity:1;stroke:none"
       d="M 349.9375 365.71875 L 346.8125 371.125 C 347.10096 371.29161 347.40099 371.45541 347.6875 371.625 L 350.8125 366.21875 C 350.52114 366.04653 350.23075 365.88809 349.9375 365.71875 z M 253.0625 533.53125 L 250.0625 538.71875 L 250.9375 539.21875 L 253.9375 534.03125 C 253.646 533.86646 253.35205 533.69906 253.0625 533.53125 z "
       id="path4074" />
    <path
       style="opacity:0.80000000000000004;fill:#00ff00;fill-opacity:1;stroke:none"
       d="M 370.59375 381.5625 L 366.1875 385.96875 C 366.4201 386.20069 366.64484 386.45314 366.875 386.6875 L 371.3125 382.25 C 371.07921 382.01276 370.82938 381.79741 370.59375 381.5625 z M 233.625 518.53125 L 229.4375 522.71875 L 230.15625 523.4375 L 234.34375 519.25 C 234.10071 519.0114 233.86544 518.77247 233.625 518.53125 z "
       id="path4072" />
    <path
       style="opacity:0.80000000000000004;fill:#00ff00;fill-opacity:1;stroke:none"
       d="M 386.5 402.15625 L 381.09375 405.25 C 381.25995 405.53546 381.39924 405.83764 381.5625 406.125 L 386.96875 403 C 386.80961 402.72025 386.66175 402.4343 386.5 402.15625 z M 218.65625 499.03125 L 213.65625 501.9375 L 214.15625 502.78125 L 219.15625 499.875 C 218.9898 499.59245 218.81981 499.31569 218.65625 499.03125 z "
       id="path4070" />
    <path
       style="opacity:0.80000000000000004;fill:#00ff00;fill-opacity:1;stroke:none"
       d="M 396.5 426.125 L 390.46875 427.75 C 390.55348 428.0622 390.66842 428.37402 390.75 428.6875 L 396.78125 427.09375 C 396.69593 426.76612 396.58855 426.45131 396.5 426.125 z M 209.3125 476.28125 L 203.78125 477.75 L 204.03125 478.71875 L 209.59375 477.21875 C 209.50819 476.90689 209.39491 476.5944 209.3125 476.28125 z "
       id="path4068" />
    <path
       style="opacity:0.80000000000000004;fill:#ffffff;fill-opacity:1;stroke:none"
       d="M 200.5 451.875 L 200.5 452.875 L 206.25 452.875 C 206.24912 452.70713 206.25 452.54308 206.25 452.375 C 206.25 452.20908 206.24914 452.04072 206.25 451.875 L 200.5 451.875 z M 393.75 451.875 C 393.75086 452.04072 393.75 452.20908 393.75 452.375 C 393.75 452.54308 393.75088 452.70713 393.75 452.875 L 400 452.875 C 400.00083 452.70684 400 452.54335 400 452.375 C 400 452.20867 400.00081 452.04114 400 451.875 L 393.75 451.875 z "
       id="path4066" />
    <path
       style="opacity:0.80000000000000004;fill:#00ff00;fill-opacity:1;stroke:none"
       d="M 204.03125 426 L 203.78125 426.96875 L 209.3125 428.4375 C 209.39491 428.12435 209.50819 427.81186 209.59375 427.5 L 204.03125 426 z M 390.75 476.03125 C 390.66842 476.34473 390.55348 476.65655 390.46875 476.96875 L 396.53125 478.59375 C 396.61796 478.27391 396.69765 477.9461 396.78125 477.625 L 390.75 476.03125 z "
       id="path4064" />
    <path
       style="opacity:0.80000000000000004;fill:#00ff00;fill-opacity:1;stroke:none"
       d="M 214.15625 401.9375 L 213.65625 402.78125 L 218.65625 405.6875 C 218.81981 405.40306 218.9898 405.1263 219.15625 404.84375 L 214.15625 401.9375 z M 381.59375 498.59375 C 381.42709 498.88725 381.26347 499.17724 381.09375 499.46875 L 386.5 502.5625 C 386.66175 502.28445 386.80961 501.9985 386.96875 501.71875 L 381.59375 498.59375 z "
       id="path4062" />
    <path
       style="opacity:0.80000000000000004;fill:#00ff00;fill-opacity:1;stroke:none"
       d="M 230.15625 381.3125 L 229.4375 382 L 233.625 386.1875 C 233.86015 385.95159 234.07487 385.70216 234.3125 385.46875 L 230.15625 381.3125 z M 366.875 518.03125 C 366.63959 518.27095 366.39421 518.51283 366.15625 518.75 L 370.59375 523.1875 C 370.83458 522.94751 371.07411 522.71117 371.3125 522.46875 L 366.875 518.03125 z "
       id="path4060" />
    <path
       style="opacity:0.80000000000000004;fill:#00ff00;fill-opacity:1;stroke:none"
       d="M 250.9375 365.5 L 250.0625 366 L 253.0625 371.1875 C 253.35337 371.01892 253.64466 370.85303 253.9375 370.6875 L 250.9375 365.5 z M 347.6875 533.09375 C 347.40099 533.26334 347.10096 533.42714 346.8125 533.59375 L 349.9375 539.03125 C 350.23342 538.86037 350.5185 538.67381 350.8125 538.5 L 347.6875 533.09375 z "
       id="path4058" />
    <path
       style="opacity:0.80000000000000004;fill:#00ff00;fill-opacity:1;stroke:none"
       d="M 275.09375 355.625 L 274.125 355.90625 L 275.6875 361.78125 C 276.02185 361.69173 276.35168 361.61716 276.6875 361.53125 L 275.09375 355.625 z M 325.21875 542.6875 C 324.89512 542.77769 324.57503 542.8507 324.25 542.9375 L 325.875 548.96875 C 326.19813 548.88243 326.52192 548.80821 326.84375 548.71875 L 325.21875 542.6875 z "
       id="path4076" />
    <path
       style="opacity:0.69999999999999996;fill:#ff00ff;fill-opacity:1;stroke:none"
       d="m 538,366.625 c -54.67619,0 -99,44.32381 -99,99 0,54.67619 44.32381,99 99,99 54.67619,0 99,-44.32381 99,-99 0,-54.67619 -44.32381,-99 -99,-99 z m 0,3 c 53.01933,0 96,42.98067 96,96 0,53.01933 -42.98067,96 -96,96 -53.01933,0 -96,-42.98067 -96,-96 0,-53.01933 42.98067,-96 96,-96 z"
       id="path4124"
       inkscape:connector-curvature="0"
       inkscape:export-filename="Z:\Work\Strategy\Bitmap\HP_Base_Def_Green.png"
       inkscape:export-xdpi="1454.5454"
       inkscape:export-ydpi="1454.5454" />
  </g>
</svg>
