<?xml version="1.0" encoding="UTF-8" standalone="no"?>
<!-- Created with Inkscape (http://www.inkscape.org/) -->

<svg
   xmlns:osb="http://www.openswatchbook.org/uri/2009/osb"
   xmlns:dc="http://purl.org/dc/elements/1.1/"
   xmlns:cc="http://creativecommons.org/ns#"
   xmlns:rdf="http://www.w3.org/1999/02/22-rdf-syntax-ns#"
   xmlns:svg="http://www.w3.org/2000/svg"
   xmlns="http://www.w3.org/2000/svg"
   xmlns:sodipodi="http://sodipodi.sourceforge.net/DTD/sodipodi-0.dtd"
   xmlns:inkscape="http://www.inkscape.org/namespaces/inkscape"
   width="210mm"
   height="297mm"
   id="svg2"
   version="1.1"
   inkscape:version="0.48.4 r"
   inkscape:export-filename="Z:\Work\Strategy\Bitmap\SourceItem.png"
   inkscape:export-xdpi="661.59003"
   inkscape:export-ydpi="661.59003"
   sodipodi:docname="SourceItem.svg">
  <defs
     id="defs4">
    <linearGradient
       id="linearGradient5237"
       osb:paint="solid">
      <stop
         style="stop-color:#48ff00;stop-opacity:1;"
         offset="0"
         id="stop5239" />
    </linearGradient>
    <linearGradient
       id="linearGradient5207"
       osb:paint="solid">
      <stop
         style="stop-color:#77ecff;stop-opacity:1;"
         offset="0"
         id="stop5209" />
    </linearGradient>
    <filter
       inkscape:collect="always"
       id="filter5339">
      <feGaussianBlur
         inkscape:collect="always"
         stdDeviation="1.2617086"
         id="feGaussianBlur5341" />
    </filter>
    <filter
       inkscape:collect="always"
       id="filter5389"
       x="-0.13573255"
       width="1.2714651"
       y="-0.10943377"
       height="1.2188675">
      <feGaussianBlur
         inkscape:collect="always"
         stdDeviation="1.6587851"
         id="feGaussianBlur5391" />
    </filter>
    <filter
       inkscape:collect="always"
       id="filter3913">
      <feGaussianBlur
         inkscape:collect="always"
         stdDeviation="2.3388013"
         id="feGaussianBlur3915" />
    </filter>
    <filter
       inkscape:collect="always"
       id="filter3925">
      <feGaussianBlur
         inkscape:collect="always"
         stdDeviation="2.8052593"
         id="feGaussianBlur3927" />
    </filter>
    <filter
       inkscape:collect="always"
       id="filter3831"
       x="-0.13204492"
       width="1.2640898"
       y="-0.14192717"
       height="1.2838543">
      <feGaussianBlur
         inkscape:collect="always"
         stdDeviation="3.8061123"
         id="feGaussianBlur3833" />
    </filter>
  </defs>
  <sodipodi:namedview
     id="base"
     pagecolor="#ffffff"
     bordercolor="#666666"
     borderopacity="1.0"
     inkscape:pageopacity="0.0"
     inkscape:pageshadow="2"
     inkscape:zoom="0.9899495"
     inkscape:cx="78.195668"
     inkscape:cy="430.2062"
     inkscape:document-units="px"
     inkscape:current-layer="layer1"
     showgrid="false"
     inkscape:window-width="1920"
     inkscape:window-height="1018"
     inkscape:window-x="-8"
     inkscape:window-y="-8"
     inkscape:window-maximized="1"
     inkscape:snap-nodes="true" />
  <metadata
     id="metadata7">
    <rdf:RDF>
      <cc:Work
         rdf:about="">
        <dc:format>image/svg+xml</dc:format>
        <dc:type
           rdf:resource="http://purl.org/dc/dcmitype/StillImage" />
        <dc:title></dc:title>
      </cc:Work>
    </rdf:RDF>
  </metadata>
  <g
     inkscape:label="レイヤー 1"
     inkscape:groupmode="layer"
     id="layer1">
    <path
       sodipodi:type="star"
       style="fill:none;stroke:#bb0080;stroke-opacity:1"
       id="path5253"
       sodipodi:sides="5"
       sodipodi:cx="396.42856"
       sodipodi:cy="539.50507"
       sodipodi:r1="77.35421"
       sodipodi:r2="62.580868"
       sodipodi:arg1="-1.5707963"
       sodipodi:arg2="-0.9424778"
       inkscape:flatsided="true"
       inkscape:rounded="0"
       inkscape:randomized="0"
       d="m 396.42856,462.15086 73.56822,53.45044 -28.10056,86.48464 -90.93533,0 -28.10056,-86.48464 z"
       inkscape:transform-center-y="-4.4117879"
       transform="matrix(0.61886881,0,0,0.59726615,160.4691,224.19859)" />
    <path
       transform="matrix(0.49959696,0.35249227,-0.36524167,0.48215767,404.80159,146.56218)"
       inkscape:transform-center-y="4.3716196"
       d="m 396.42856,462.15086 73.56822,53.45044 -28.10056,86.48464 -90.93533,0 -28.10056,-86.48464 z"
       inkscape:randomized="0"
       inkscape:rounded="0"
       inkscape:flatsided="true"
       sodipodi:arg2="-0.9424778"
       sodipodi:arg1="-1.5707963"
       sodipodi:r2="62.580868"
       sodipodi:r1="77.35421"
       sodipodi:cy="539.50507"
       sodipodi:cx="396.42856"
       sodipodi:sides="5"
       id="path5257"
       style="fill:none;stroke:#bb0080;stroke-opacity:1"
       sodipodi:type="star"
       inkscape:transform-center-x="0.043775046" />
    <path
       sodipodi:type="star"
       style="fill:none;stroke:#bb4300;stroke-width:1;stroke-linecap:square;stroke-linejoin:miter;stroke-miterlimit:4;stroke-opacity:1;stroke-dasharray:none;stroke-dashoffset:1"
       id="path5261"
       sodipodi:sides="5"
       sodipodi:cx="385.71429"
       sodipodi:cy="548.07648"
       sodipodi:r1="52.186871"
       sodipodi:r2="26.093433"
       sodipodi:arg1="-1.5707963"
       sodipodi:arg2="-0.9424778"
       inkscape:flatsided="false"
       inkscape:rounded="0"
       inkscape:randomized="0"
       d="m 385.7143,495.88961 15.33733,31.07684 34.29533,4.9834 -24.81634,24.18994 5.85835,34.15675 -30.67468,-16.12663 -30.67467,16.12663 5.85834,-34.15675 -24.81633,-24.18994 34.29533,-4.9834 z"
       inkscape:transform-center-y="-4.9834026"
       transform="translate(20,-1.4285714)" />
    <path
       inkscape:transform-center-x="0.043775046"
       sodipodi:type="star"
       style="fill:none;stroke:#bb0080;stroke-opacity:1;filter:url(#filter3913)"
       id="path5309"
       sodipodi:sides="5"
       sodipodi:cx="396.42856"
       sodipodi:cy="539.50507"
       sodipodi:r1="77.35421"
       sodipodi:r2="62.580868"
       sodipodi:arg1="-1.5707963"
       sodipodi:arg2="-0.9424778"
       inkscape:flatsided="true"
       inkscape:rounded="0"
       inkscape:randomized="0"
       d="m 396.42856,462.15086 73.56822,53.45044 -28.10056,86.48464 -90.93533,0 -28.10056,-86.48464 z"
       inkscape:transform-center-y="4.3716196"
       transform="matrix(0.49959696,0.35249227,-0.36524167,0.48215767,404.80159,146.56218)" />
    <path
       transform="matrix(0.61886881,0,0,0.59726615,160.4691,224.19859)"
       inkscape:transform-center-y="-4.4117879"
       d="m 396.42856,462.15086 73.56822,53.45044 -28.10056,86.48464 -90.93533,0 -28.10056,-86.48464 z"
       inkscape:randomized="0"
       inkscape:rounded="0"
       inkscape:flatsided="true"
       sodipodi:arg2="-0.9424778"
       sodipodi:arg1="-1.5707963"
       sodipodi:r2="62.580868"
       sodipodi:r1="77.35421"
       sodipodi:cy="539.50507"
       sodipodi:cx="396.42856"
       sodipodi:sides="5"
       id="path5315"
       style="fill:none;stroke:#bb0080;stroke-opacity:1;filter:url(#filter3925)"
       sodipodi:type="star" />
    <path
       transform="translate(20,-1.0714285)"
       inkscape:transform-center-y="-4.9834026"
       d="m 385.7143,495.88961 15.33733,31.07684 34.29533,4.9834 -24.81634,24.18994 5.85835,34.15675 -30.67468,-16.12663 -30.67467,16.12663 5.85834,-34.15675 -24.81633,-24.18994 34.29533,-4.9834 z"
       inkscape:randomized="0"
       inkscape:rounded="0"
       inkscape:flatsided="false"
       sodipodi:arg2="-0.9424778"
       sodipodi:arg1="-1.5707963"
       sodipodi:r2="26.093433"
       sodipodi:r1="52.186871"
       sodipodi:cy="548.07648"
       sodipodi:cx="385.71429"
       sodipodi:sides="5"
       id="path5321"
       style="fill:none;stroke:#bb4300;stroke-width:1;stroke-linecap:square;stroke-linejoin:miter;stroke-miterlimit:4;stroke-opacity:1;stroke-dasharray:none;stroke-dashoffset:1;filter:url(#filter5339)"
       sodipodi:type="star" />
    <text
       xml:space="preserve"
       style="font-size:52.87726212px;font-style:normal;font-variant:normal;font-weight:normal;font-stretch:normal;line-height:125%;letter-spacing:0px;word-spacing:0px;fill:#ff4300;fill-opacity:1;stroke:none;font-family:Algerian;-inkscape-font-specification:Algerian"
       x="390.48291"
       y="566.86676"
       id="text5353"
       sodipodi:linespacing="125%"><tspan
         sodipodi:role="line"
         x="390.48291"
         y="566.86676"
         id="tspan5357">S</tspan></text>
    <text
       sodipodi:linespacing="125%"
       id="text5361"
       y="566.86676"
       x="390.48291"
       style="font-size:52.87726212px;font-style:normal;font-variant:normal;font-weight:normal;font-stretch:normal;line-height:125%;letter-spacing:0px;word-spacing:0px;fill:#ff4300;fill-opacity:1;stroke:none;filter:url(#filter5389);font-family:Algerian;-inkscape-font-specification:Algerian"
       xml:space="preserve"><tspan
         id="tspan5363"
         y="566.86676"
         x="390.48291"
         sodipodi:role="line">S</tspan></text>
    <path
       sodipodi:type="star"
       style="fill:none;stroke:#bb0080;stroke-opacity:1;filter:url(#filter3925)"
       id="path3929"
       sodipodi:sides="5"
       sodipodi:cx="396.42856"
       sodipodi:cy="539.50507"
       sodipodi:r1="77.35421"
       sodipodi:r2="62.580868"
       sodipodi:arg1="-1.5707963"
       sodipodi:arg2="-0.9424778"
       inkscape:flatsided="true"
       inkscape:rounded="0"
       inkscape:randomized="0"
       d="m 396.42856,462.15086 73.56822,53.45044 -28.10056,86.48464 -90.93533,0 -28.10056,-86.48464 z"
       inkscape:transform-center-y="-4.4117879"
       transform="matrix(0.61886881,0,0,0.59726615,160.4691,224.19859)" />
    <path
       transform="matrix(0.49959696,0.35249227,-0.36524167,0.48215767,404.80159,146.56218)"
       inkscape:transform-center-y="4.3716196"
       d="m 396.42856,462.15086 73.56822,53.45044 -28.10056,86.48464 -90.93533,0 -28.10056,-86.48464 z"
       inkscape:randomized="0"
       inkscape:rounded="0"
       inkscape:flatsided="true"
       sodipodi:arg2="-0.9424778"
       sodipodi:arg1="-1.5707963"
       sodipodi:r2="62.580868"
       sodipodi:r1="77.35421"
       sodipodi:cy="539.50507"
       sodipodi:cx="396.42856"
       sodipodi:sides="5"
       id="path3931"
       style="fill:none;stroke:#bb0080;stroke-opacity:1;filter:url(#filter3913)"
       sodipodi:type="star"
       inkscape:transform-center-x="0.043775046" />
    <path
       style="fill:#b8ff00;stroke:#00ff00;stroke-width:0.17857143000000000;stroke-linecap:square;stroke-linejoin:miter;stroke-miterlimit:4;stroke-opacity:0.95729544000000000;stroke-dasharray:none;stroke-dashoffset:1;fill-opacity:1;filter:url(#filter3831);opacity:0.72607261000000001"
       d="m 386.34735,573.92225 c -4.09211,-2.89375 -4.54043,-3.2602 -4.53164,-3.70401 0.005,-0.27089 0.0687,-0.63316 0.14085,-0.80503 0.0721,-0.17188 0.0796,-0.4467 0.0167,-0.61073 -0.0629,-0.16402 -0.0442,-0.34482 0.0417,-0.40178 0.29625,-0.19647 2.00959,-11.10071 1.98047,-12.60439 -0.0263,-1.35863 -0.32307,-2.54469 -0.57394,-2.29382 -0.0671,0.0671 -0.13207,0.0283 -0.14434,-0.0863 -0.0123,-0.11458 -0.0424,-0.28869 -0.067,-0.3869 -0.0246,-0.0982 -0.0547,-0.25525 -0.067,-0.34896 -0.0123,-0.0937 -0.38134,-0.44453 -0.82013,-0.77957 -0.4388,-0.33505 -0.75654,-0.65046 -0.70608,-0.70092 0.11874,-0.11874 -6.8601,-6.84297 -7.05203,-6.79475 -0.23543,0.0592 -3.2298,-3.08915 -3.2298,-3.39584 0,-0.15417 0.0804,-0.32998 0.17858,-0.39068 0.0982,-0.0607 0.17734,-0.24624 0.17583,-0.41232 -0.002,-0.25557 -0.0283,-0.2616 -0.16886,-0.0393 -0.0914,0.14448 -0.22772,0.20109 -0.303,0.12581 -0.0753,-0.0753 -0.0395,-0.29285 0.0796,-0.48348 0.11905,-0.19062 0.21901,-0.48831 0.22214,-0.66152 0.008,-0.43662 0.46588,-1.00064 0.69672,-0.85798 0.10475,0.0647 0.19045,-8.7e-4 0.19045,-0.14581 0,-0.14493 -0.085,-0.29183 -0.18879,-0.32644 -0.10383,-0.0346 -0.13364,-0.20664 -0.0662,-0.38229 0.0674,-0.17564 0.23271,-0.27708 0.36736,-0.22541 0.13477,0.0517 0.24482,-0.0173 0.24482,-0.15343 0,-0.13605 -0.085,-0.27569 -0.1888,-0.3103 -0.10383,-0.0346 -0.13364,-0.20664 -0.0662,-0.38229 0.0674,-0.17564 0.23272,-0.27708 0.36736,-0.22541 0.13477,0.0517 0.24482,-0.0172 0.24482,-0.15343 0,-0.13605 -0.085,-0.27569 -0.18879,-0.3103 -0.10384,-0.0346 -0.13365,-0.20664 -0.0662,-0.38229 0.0674,-0.17564 0.23271,-0.27708 0.36736,-0.22541 0.14153,0.0543 0.24481,-0.0211 0.24481,-0.17885 0,-0.15003 -0.0804,-0.22312 -0.17857,-0.16242 -0.2692,0.16637 -0.21445,-0.37293 0.0611,-0.60159 0.13181,-0.10939 0.29252,-0.14601 0.35715,-0.0814 0.0646,0.0646 0.11749,-0.0117 0.11749,-0.16958 0,-0.15789 -0.0842,-0.33916 -0.18724,-0.4028 -0.12817,-0.0792 -0.12179,-0.19459 0.0202,-0.36572 0.11411,-0.1375 0.29138,-0.19813 0.39394,-0.13475 0.1145,0.0708 0.15158,-0.0182 0.0961,-0.23045 -0.0497,-0.19013 0.01,-0.43929 0.13224,-0.55368 0.12246,-0.11438 0.25698,-0.31098 0.29894,-0.43687 0.0451,-0.13544 0.30777,-0.21126 0.64321,-0.1857 0.31179,0.0238 0.5669,-0.0244 0.5669,-0.10696 0,-0.0826 0.26116,-0.15679 0.58036,-0.16489 1.2166,-0.0309 1.65878,-0.0928 1.86717,-0.26138 0.11847,-0.0959 0.29097,-0.12757 0.38333,-0.0705 0.16784,0.10373 7.39728,-0.87968 10.51735,-1.43066 0.90849,-0.16043 1.65179,-0.36731 1.65179,-0.45972 0,-0.0924 0.072,-0.12353 0.15999,-0.0692 0.24597,0.15202 0.90949,-0.28332 1.91939,-1.25934 0.81733,-0.7899 1.29299,-1.63554 4.31181,-7.66565 3.07184,-6.13602 3.44757,-6.80122 3.96806,-7.02513 0.59332,-0.25524 2.83167,-0.38182 2.96388,-0.16762 0.041,0.0664 0.29444,0.0616 0.56321,-0.0107 0.26876,-0.0723 1.01098,-0.1021 1.64937,-0.0663 1.32852,0.0746 1.1215,0.0745 2.82576,6.1e-4 1.21751,-0.0528 1.76233,0.0719 1.23786,0.28333 -0.12338,0.0498 0.0368,0.0968 0.35603,0.10454 0.52016,0.0126 0.67015,0.16106 0.60131,0.59502 -0.0548,0.34512 6.67872,13.49867 7.18364,14.03294 0.54164,0.57313 1.74526,1.31442 2.03217,1.25159 0.076,-0.0166 0.37307,0.0663 0.6601,0.18443 0.28703,0.11808 0.62597,0.17475 0.75321,0.12592 0.12724,-0.0488 0.28384,-0.004 0.34801,0.1 0.0642,0.10382 0.34487,0.14312 0.62379,0.0873 0.27892,-0.0558 0.55182,-0.0291 0.60645,0.0593 0.0928,0.15022 0.36737,0.18456 1.83417,0.22947 0.3192,0.01 0.58036,0.0898 0.58036,0.17788 0,0.0881 0.1808,0.1404 0.40179,0.11631 0.22098,-0.0241 0.85886,0.0552 1.41752,0.17616 0.55865,0.12097 1.12115,0.20004 1.25,0.17571 0.12884,-0.0243 0.63605,0.0434 1.12712,0.15056 0.49107,0.10714 2.21875,0.37341 3.83929,0.59171 2.29301,0.30889 3.01081,0.46952 3.23676,0.72434 0.15968,0.18008 0.33859,0.27916 0.39758,0.22017 0.059,-0.059 0.15613,0.0449 0.21588,0.23081 0.0597,0.18593 0.23239,0.63461 0.38366,0.99706 0.15128,0.36245 0.27504,0.87106 0.27504,1.13024 0,0.25919 0.11003,0.51347 0.24451,0.56507 0.13449,0.0516 0.19942,0.16679 0.14431,0.25596 -0.0551,0.0892 0.0191,0.40138 0.16501,0.69378 0.14587,0.2924 0.32124,0.79361 0.38971,1.1138 0.0685,0.32018 0.18773,0.66251 0.26502,0.76072 0.0773,0.0982 0.16845,0.37947 0.20259,0.625 0.0341,0.24554 0.15142,0.54152 0.26062,0.65774 0.10921,0.11622 0.18035,0.53406 0.15809,0.92853 -0.0383,0.67961 -0.28665,0.97029 -4.73381,5.54189 -2.58133,2.65357 -4.74817,4.79078 -4.81519,4.74936 -0.16775,-0.10368 -2.00428,1.77704 -1.86818,1.91313 0.0602,0.0602 -0.0908,0.24057 -0.33554,0.40091 -0.38715,0.25367 -0.69535,0.84909 -0.74197,1.43344 -0.008,0.0982 -0.0875,0.29573 -0.17694,0.43891 -0.30956,0.49536 -0.13997,2.43709 0.60113,6.88252 0.40933,2.45536 0.7898,4.58482 0.8455,4.73214 0.0557,0.14732 0.13448,0.65925 0.17508,1.13761 0.0406,0.47836 0.1261,0.95435 0.19001,1.05775 0.0639,0.10339 0.13579,0.39504 0.15976,0.6481 0.20205,2.13352 0.209,2.52056 0.047,2.62067 -0.0996,0.0615 -0.27048,0.0225 -0.37977,-0.0868 -0.14593,-0.14592 -0.14179,-0.19873 0.0156,-0.19873 0.11786,0 0.21429,-0.0778 0.21429,-0.17296 0,-0.0951 -0.11822,-0.1276 -0.26272,-0.0722 -0.14449,0.0554 -0.24494,0.27023 -0.22321,0.47731 0.027,0.25729 -0.1196,0.45457 -0.46302,0.6231 -0.27639,0.13563 -0.54597,0.35982 -0.59907,0.4982 -0.0531,0.13838 -0.16201,0.21114 -0.24201,0.1617 -0.08,-0.0494 -0.2783,0.0429 -0.44065,0.20528 -0.40169,0.40169 -1.49814,1.13667 -1.6957,1.13667 -0.0883,0 -0.26551,0.14062 -0.39385,0.3125 -0.12834,0.17187 -0.35312,0.33903 -0.49951,0.37146 -0.14639,0.0324 -0.30886,0.12804 -0.36105,0.21248 -0.13617,0.22033 -1.41126,1.06784 -1.60657,1.06784 -0.0904,0 -0.25371,0.16695 -0.36291,0.371 -0.11371,0.21247 -0.30715,0.32932 -0.45271,0.27346 -0.13979,-0.0536 -0.25416,-0.0376 -0.25416,0.0356 0,0.35204 -1.45237,0.0435 -2.63393,-0.55948 -0.71206,-0.3634 -1.29587,-0.59945 -1.29738,-0.52456 -10e-4,0.0749 -0.0618,0.0469 -0.13393,-0.0621 -0.16653,-0.25171 -1.19654,-0.78385 -1.51722,-0.78385 -0.13368,0 -0.40197,-0.14062 -0.5962,-0.3125 -0.19423,-0.17187 -0.47054,-0.33861 -0.61403,-0.37053 -0.14349,-0.0319 -0.28872,-0.13552 -0.32275,-0.23023 -0.0874,-0.24323 -3.5335,-1.94971 -3.66723,-1.81597 -0.0606,0.0606 -0.11019,0.0302 -0.11019,-0.0676 0,-0.0978 -0.40179,-0.366 -0.89286,-0.596 -0.82836,-0.38799 -1.14985,-0.71429 -0.70374,-0.71429 0.10401,0 0.14501,-0.0714 0.0911,-0.15857 -0.0539,-0.0872 0.27275,-0.21417 0.72589,-0.28212 1.63862,-0.24573 4.16277,-1.23309 5.61906,-2.198 0.25545,-0.16926 0.69741,-0.46223 0.98214,-0.65104 0.99347,-0.65883 2.96503,-2.70122 3.71951,-3.85313 0.87118,-1.3301 1.75024,-3.41381 2.08236,-4.93604 0.12554,-0.57535 0.22334,-1.98012 0.21733,-3.1217 -0.0122,-2.32528 -0.32682,-3.56942 -1.43658,-5.68145 -0.84722,-1.61238 -1.56091,-2.30137 -4.19886,-4.05357 -1.81398,-1.2049 -2.27679,-1.59546 -2.27679,-1.92138 0,-0.40624 0.4922,-1.00014 0.82887,-1.00014 0.43133,0 1.21354,-1.19084 2.54408,-3.87315 0.8277,-1.66861 1.56254,-3.42334 1.73794,-4.15001 0.28872,-1.19624 0.2879,-1.31178 -0.0166,-2.31749 -0.23513,-0.77658 -0.53908,-1.28021 -1.14127,-1.89101 -1.23259,-1.25021 -2.03946,-1.54641 -4.66729,-1.71333 -1.22768,-0.078 -3.03572,-0.30972 -4.01786,-0.51496 -6.69423,-1.39891 -10.50564,-1.15063 -14.69077,0.95697 -2.15478,1.08513 -4.59387,3.80678 -5.41382,6.04102 -1.3092,3.56732 -1.11298,7.52274 0.55176,11.12267 0.91931,1.98797 1.93623,4.05103 2.35353,4.77469 l 0.38494,0.66754 -1.05711,1.11817 c -0.77152,0.81609 -1.26854,1.57647 -1.83977,2.8146 -0.43047,0.93304 -0.85179,1.81697 -0.93626,1.96429 -1.50247,2.62016 -2.02028,4.2223 -1.90028,5.87947 0.10859,1.49958 0.6051,2.56532 1.68707,3.62122 1.19913,1.17025 1.85692,1.39413 4.6864,1.59505 1.33337,0.0947 2.94663,0.28208 3.58502,0.41647 5.6438,1.18802 5.20631,1.06487 5.06757,1.42643 -0.0577,0.15048 -0.17824,0.22832 -0.26776,0.17299 -0.0895,-0.0553 -0.1101,-0.18583 -0.0457,-0.28999 0.0673,-0.10885 0.0115,-0.15424 -0.13102,-0.10671 -0.13643,0.0455 -0.25811,0.17644 -0.27039,0.29102 -0.0123,0.11458 -0.0324,0.27381 -0.0446,0.35383 -0.0123,0.08 -0.30357,0.27962 -0.64732,0.44354 -0.34375,0.16392 -0.625,0.36707 -0.625,0.45143 0,0.0844 -0.34152,0.31337 -0.75893,0.50892 -3.15398,1.47752 -6.02679,2.93835 -6.02679,3.06461 0,0.19176 -2.25432,1.28168 -2.64233,1.27751 -0.069,-7.1e-4 -2.16915,-1.44651 -4.66692,-3.21282 l 0,0 z m 36.59497,1.93441 c 0,-0.0819 -0.0756,-0.14881 -0.16804,-0.14881 -0.0924,0 -0.20941,0.067 -0.26,0.14881 -0.0506,0.0818 0.025,0.14881 0.16804,0.14881 0.143,0 0.26,-0.067 0.26,-0.14881 z m 0.89285,-0.5847 c 0,-0.0433 -0.0804,-0.12841 -0.17857,-0.18911 -0.0982,-0.0607 -0.17857,-0.0253 -0.17857,0.0788 0,0.10401 0.0804,0.18911 0.17857,0.18911 0.0982,0 0.17857,-0.0354 0.17857,-0.0788 z m 1.875,-1.34983 c 0.0607,-0.0982 0.03,-0.17857 -0.0682,-0.17857 -0.0982,0 -0.22824,0.0804 -0.28894,0.17857 -0.0607,0.0982 -0.03,0.17858 0.0682,0.17858 0.0982,0 0.22823,-0.0804 0.28893,-0.17858 z m 1.96429,-1.25 c 0.0607,-0.0982 -0.0102,-0.17857 -0.15749,-0.17857 -0.14733,0 -0.31752,0.0804 -0.37822,0.17857 -0.0607,0.0982 0.0102,0.17858 0.15749,0.17858 0.14732,0 0.31752,-0.0804 0.37822,-0.17858 z m 0.89159,-0.71224 c 0.0626,-0.10122 -0.009,-0.13116 -0.16803,-0.0702 -0.30936,0.11872 -0.36596,0.24671 -0.1091,0.24671 0.0924,0 0.21713,-0.0794 0.27713,-0.17653 z m 11.6977,-31.78776 c 0,-0.0982 -0.0804,-0.17857 -0.17858,-0.17857 -0.0982,0 -0.17857,0.0804 -0.17857,0.17857 0,0.0982 0.0804,0.17858 0.17857,0.17858 0.0982,0 0.17858,-0.0804 0.17858,-0.17858 z m -68.27088,-1.10491 c -0.057,-0.14245 -0.0993,-0.10014 -0.10788,0.10789 -0.008,0.18824 0.0344,0.29371 0.0938,0.23438 0.0593,-0.0593 0.0657,-0.21336 0.0141,-0.34227 l 0,0 z m 67.57171,-0.73711 c -0.13921,-0.13921 -0.19369,-0.0664 -0.19369,0.25869 0,0.5888 0.25025,0.84064 0.32762,0.32969 0.0329,-0.21708 -0.0274,-0.48185 -0.13393,-0.58838 z m -0.37226,-1.01512 c 0,-0.0982 -0.0354,-0.17857 -0.0788,-0.17857 -0.0433,0 -0.12841,0.0804 -0.18911,0.17857 -0.0607,0.0982 -0.0253,0.17857 0.0788,0.17857 0.10401,0 0.18911,-0.0803 0.18911,-0.17857 z m -0.47114,-1.69643 c -0.0565,-0.14732 -0.17203,-0.26785 -0.25665,-0.26785 -0.0846,0 -0.10761,0.12053 -0.0511,0.26785 0.0565,0.14732 0.17203,0.26786 0.25665,0.26786 0.0846,0 0.10761,-0.12054 0.0511,-0.26786 z m -0.42172,-1.15017 c 0,-0.0924 -0.0804,-0.2177 -0.17857,-0.2784 -0.0982,-0.0607 -0.17857,0.0149 -0.17857,0.16803 0,0.15312 0.0804,0.2784 0.17857,0.2784 0.0982,0 0.17857,-0.0756 0.17857,-0.16803 z m -0.68155,-1.83495 c -0.12813,-0.12813 -0.21131,-0.13867 -0.21131,-0.0268 0,0.23835 0.21118,0.44953 0.33036,0.33036 0.0507,-0.0507 -0.003,-0.18735 -0.11905,-0.30358 l 0,0 z m -35.03274,-19.53569 c 0,-0.0377 -0.24581,-0.0685 -0.54625,-0.0685 -0.30044,0 -0.50325,0.0696 -0.45069,0.15462 0.0889,0.14385 0.99694,0.0654 0.99694,-0.0861 z m 1.16072,0.1101 c 0.0607,-0.0982 -0.0197,-0.17857 -0.17857,-0.17857 -0.15892,0 -0.23927,0.0804 -0.17857,0.17857 0.0607,0.0982 0.14105,0.17857 0.17857,0.17857 0.0375,0 0.11787,-0.0804 0.17857,-0.17857 z m 2.03467,-0.10014 c 0.0431,-0.0431 -0.13112,-0.0784 -0.38723,-0.0784 -0.25611,0 -0.51221,0.0753 -0.56911,0.1674 -0.0991,0.16036 0.7897,0.0777 0.95634,-0.089 l 0,0 z m 1.2689,0.10014 c 0,-0.0982 -0.14063,-0.17734 -0.3125,-0.17584 -0.26706,0.002 -0.27355,0.0279 -0.0446,0.17584 0.337,0.21779 0.35714,0.21779 0.35714,0 z m 1.51786,0.006 c 0.28978,-0.11994 0.24769,-0.14613 -0.22322,-0.13885 -0.31919,0.005 -0.58035,0.0771 -0.58035,0.16037 0,0.18497 0.32576,0.17624 0.80357,-0.0215 z m 1.42857,-0.006 c 0.0607,-0.0982 -0.0197,-0.17857 -0.17857,-0.17857 -0.15892,0 -0.23927,0.0804 -0.17857,0.17857 0.0607,0.0982 0.14105,0.17857 0.17857,0.17857 0.0375,0 0.11787,-0.0804 0.17857,-0.17857 z"
       id="path3809"
       inkscape:connector-curvature="0"
       inkscape:export-filename="Z:\Work\Strategy\Assets\sprite\SourceItem.png"
       inkscape:export-xdpi="1800"
       inkscape:export-ydpi="1800" />
  </g>
</svg>
